<svg xmlns="http://www.w3.org/2000/svg" version="1.1" xmlns:xlink="http://www.w3.org/1999/xlink" xmlns:svgjs="http://svgjs.com/svgjs" width="1440" height="560" preserveAspectRatio="none" viewBox="0 0 1440 560"><g mask="url(&quot;#SvgjsMask1004&quot;)" fill="none"><path d="M402.66 631.24C574.78 609.79 675.9 220.74 961.11 219.51 1246.32 218.28 1372.95 396.53 1519.56 398.71" stroke="rgba(0, 163, 255, 1)" stroke-width="2"></path><path d="M258.43 586.62C448.94 575.45 592.7 225.86 931.03 225.64 1269.36 225.42 1427.28 435.92 1603.63 438.44" stroke="rgba(0, 163, 255, 1)" stroke-width="2"></path><path d="M800.45 571.09C934.54 558.33 988.98 296.08 1251.09 275.77 1513.19 255.46 1573.56 37.24 1701.72 29.37" stroke="rgba(0, 163, 255, 1)" stroke-width="2"></path><path d="M947.22 660.89C1063.43 574.21 994.81 143.28 1196.96 137.51 1399.11 131.74 1560.24 351.21 1696.44 355.91" stroke="rgba(0, 163, 255, 1)" stroke-width="2"></path><path d="M617.3 663.5C798.06 615.66 857.57 122.94 1128.66 117.69 1399.75 112.44 1504.12 299.68 1640.02 302.49" stroke="rgba(0, 163, 255, 1)" stroke-width="2"></path></g><defs><mask id="SvgjsMask1004"><rect width="1440" height="560" fill="#ffffff"></rect></mask></defs></svg>